<svg xmlns="http://www.w3.org/2000/svg" version="1.1" xmlns:xlink="http://www.w3.org/1999/xlink" xmlns:svgjs="http://svgjs.dev/svgjs" width="100%" height="100%" viewBox="0 0 1000 600"><rect width="1000" height="600" x="0" y="0" fill="#358597"/><g><rect width="333.3333333333333" height="333.3333333333333" rx="13.333333333333334" ry="13.333333333333334" y="175.9146698855143" fill="#f4a896" transform="matrix(0.8133124313097488,0,0,0.8133124313097486,0,21.374320851892406)" x="153.69242858886716"/><path d="M300.51514467675537 354.981978180726L285.1342569533 354.981978180726L285.1342569533 417.5813189531257L264.92685247730475 417.5813189531257L264.92685247730475 267.58131939678105L307.3187887737092 267.58131939678105Q321.5657358143389 267.58131939678105 331.91657897038823 270.4597842070308Q342.29649752856136 273.3382490172805 349.0419908212677 278.7753492144187Q355.787484113974 284.24152481368077 359.04392915183223 291.91743097434664Q362.27129878756676 299.62241253713614 362.27129878756676 309.13006903159726L362.27129878756676 309.13006903159726Q362.27129878756676 317.0967292135004 359.7708142049256 324.0166749189491Q357.27032962228446 330.9075452222741 352.50196367399207 336.40279622365983Q347.73359772569967 341.8980472250456 340.8718028244984 345.76507570750226Q334.0100079232971 349.66117959208265 325.3455380904243 351.6383069364966L325.3455380904243 351.6383069364966Q329.0962649643861 353.84803749790035 332.0328805788832 358.0348954037181L332.0328805788832 358.0348954037181L375.7913607751031 417.5813189531257L357.7936868605117 417.5813189531257Q352.2402850548784 417.5813189531257 349.6234988637424 413.2781594388131L349.6234988637424 413.2781594388131L310.69153542006234 359.6921933247709Q308.8888604883908 357.1917087421298 306.79543153548195 356.0868434614279Q304.7020025825731 354.981978180726 300.51514467675537 354.981978180726L300.51514467675537 354.981978180726ZM285.1342569533 283.6018659669586L285.1342569533 340.2407493039928L306.3883759057497 340.2407493039928Q315.2854489556123 340.2407493039928 322.03094224831864 338.08916954683644Q328.77643554102497 335.93758978968015 333.34127367445126 332.012410502976Q337.9061118078775 328.0872312162719 340.2030685756525 322.6501310191336Q342.50002534342747 317.2130308219953 342.50002534342747 310.61291453990765L342.50002534342747 310.61291453990765Q342.50002534342747 297.2091541608662 333.6611030978123 290.4055100639124Q324.8221808521971 283.6018659669586 307.3187887737092 283.6018659669586L307.3187887737092 283.6018659669586L285.1342569533 283.6018659669586Z " fill="#358597" transform="matrix(0.8133124313097488,0,0,0.8133124313097486,0,21.374320851892406)"/><path d="M589.7648032378113 380.1343792139286L570.3591032921594 380.1343792139286L570.3591032921594 269.5522109298776L581.4870593547441 269.5522109298776Q584.6404855959125 269.5522109298776 585.8533418425158 270.7650671764809Q587.0358766829539 271.94760201691906 587.4906977754302 274.919099821097L587.4906977754302 274.919099821097L588.7945182405286 292.14165852286305Q594.4646211933988 280.58920277396714 602.8333292949612 274.1004218546398Q611.1717159903586 267.5813195291474 622.4209576776037 267.5813195291474L622.4209576776037 267.5813195291474Q626.9994900085309 267.5813195291474 630.6987015606709 268.6425687449252Q634.4282345189758 269.67349655453796 637.5816607601442 271.5231023306079L637.5816607601442 271.5231023306079L635.0649840484425 286.04705588368176Q634.3069488943155 288.7759824385391 631.6993079641185 288.7759824385391L631.6993079641185 288.7759824385391Q630.1529162496994 288.7759824385391 626.9994900085309 287.7450546289263Q623.8460637673625 286.6838054131485 618.1456394083272 286.6838054131485L618.1456394083272 286.6838054131485Q608.0182897491901 286.6838054131485 601.1959733620469 292.59647961533926Q594.3736569749036 298.47883241136503 589.7648032378113 309.72807409861014L589.7648032378113 309.72807409861014L589.7648032378113 380.1343792139286ZM735.398517048696 309.3945386307943L735.398517048696 380.1343792139286L726.7569162916479 380.1343792139286Q723.9370255182954 380.1343792139286 722.1783839607207 379.2550584351412Q720.450063809311 378.37573765635386 719.9042784983395 375.5558468830013L719.9042784983395 375.5558468830013L717.7211372544538 365.27689019303887Q713.354854766682 369.2186729944994 709.2008221220659 372.34177782950275Q705.0467894774498 375.43456125834103 700.4682571465225 377.55705968989673Q695.8897248155953 379.70987952761743 690.7047643613664 380.80145014956037Q685.5198039071375 381.8930207715033 679.1826300186356 381.8930207715033L679.1826300186356 381.8930207715033Q672.7241705054734 381.8930207715033 667.1147103649333 380.0737364015984Q661.5052502243933 378.28477343785863 657.3512175797772 374.67652610421396Q653.1971849351611 371.06827877056935 650.7411510357895 365.54978284852456Q648.2851171364179 360.0616083326449 648.2851171364179 352.5115781975397L648.2851171364179 352.5115781975397Q648.2851171364179 345.9621544658821 651.8933644700626 339.8978732328659Q655.5016118037072 333.8639134060148 663.5064630312886 329.16409545042717Q671.5416356650352 324.4642774948396 684.5191975036898 321.46245828449656Q697.5270807485098 318.4606390741535 716.2960311646949 318.0361393878424L716.2960311646949 318.0361393878424L716.2960311646949 309.3945386307943Q716.2960311646949 296.5079410106348 710.7775352426502 289.9281958728121Q705.2590393206054 283.3181293288245 694.4646187258364 283.3181293288245L694.4646187258364 283.3181293288245Q687.3694096832076 283.3181293288245 682.5179846967945 285.1070922925643Q677.6362383042165 286.9263766624691 674.088633782902 289.13983931252005Q670.5410292615875 291.38362336873604 667.9940311437207 293.20290773864093Q665.4167116196887 294.9918707023807 662.900034907987 294.9918707023807L662.900034907987 294.9918707023807Q660.9594649134218 294.9918707023807 659.4737160113328 293.96094289276795Q657.9879671092439 292.9300150831552 657.1389677366216 291.38362336873604L657.1389677366216 291.38362336873604L653.6216846214721 285.1677351048944Q662.8090706894917 276.3138845046907 673.3912414411051 271.94760201691906Q683.9734121927185 267.5813195291474 696.8600098128779 267.5813195291474L696.8600098128779 267.5813195291474Q706.1383600993928 267.5813195291474 713.354854766682 270.64378155182055Q720.5410280278063 273.7062435744938 725.4530958265494 279.1640966842084Q730.3651636252926 284.62194979392297 732.8818403369943 292.38422977218374Q735.398517048696 300.1161883442794 735.398517048696 309.3945386307943L735.398517048696 309.3945386307943ZM684.974018596166 368.2483879972168L684.974018596166 368.2483879972168Q690.0983362380648 368.2483879972168 694.3433331011762 367.187138781439Q698.6186513704527 366.15621097182617 702.3785057349227 364.2459623834261Q706.1383600993928 362.335713795026 709.564678996047 359.60678724016867Q713.0213192988662 356.87786068531136 716.2960311646949 353.39089897632704L716.2960311646949 353.39089897632704L716.2960311646949 330.34663029086533Q702.863648233564 330.80145138334154 693.4640123223888 332.4994501285861Q684.0946978173788 334.1671274676656 678.182023615188 336.8960540225229Q672.2996708191622 339.6249805773802 669.6313870766351 343.35451353568516Q666.9631033341079 347.05372508782506 666.9631033341079 351.6322574187523L666.9631033341079 351.6322574187523Q666.9631033341079 355.998539906524 668.3578880177016 359.1822875538575Q669.7829941074605 362.335713795026 672.1783851945019 364.3672480080864Q674.6040976877083 366.36846081498174 677.878809553537 367.3084244060992Q681.1535214193658 368.2483879972168 684.974018596166 368.2483879972168ZM855.4712854624174 269.5522109298776L793.7975453226423 412.76021224755596Q792.7969389191948 414.9433534914418 791.3415114232708 416.27749536270534Q789.8557625211819 417.5813158278038 786.7933004985086 417.5813158278038L786.7933004985086 417.5813158278038L772.3906325700951 417.5813158278038L792.5846890760391 373.70624110693143L746.950972797592 269.5522109298776L763.779353219212 269.5522109298776Q766.2960299309137 269.5522109298776 767.6908146145075 270.825709988811Q769.1159207042664 272.06888764157935 769.7829916398981 273.58495794983344L769.7829916398981 273.58495794983344L799.3463626508523 343.2332279110248Q800.3469690542998 345.62861899806626 801.0443613960967 348.05433149127276Q801.7720751440587 350.44972257831415 802.3178604550302 352.9663992900159L802.3178604550302 352.9663992900159Q803.0758956091572 350.44972257831415 803.8339307632842 348.05433149127276Q804.5919659174114 345.62861899806626 805.592572320859 343.1422636925296L805.592572320859 343.1422636925296L834.2766225530257 273.58495794983344Q834.9436934886575 271.8566377984238 836.5204066092418 270.70442436415067Q838.097119729826 269.5522109298776 839.9770469120609 269.5522109298776L839.9770469120609 269.5522109298776L855.4712854624174 269.5522109298776ZM954.3493909667471 309.3945386307943L954.3493909667471 380.1343792139286L945.738111615864 380.1343792139286Q942.8878994363464 380.1343792139286 941.1595792849367 379.2550584351412Q939.400937727362 378.37573765635386 938.8551524163906 375.5558468830013L938.8551524163906 375.5558468830013L936.6720111725048 365.27689019303887Q932.305728684733 369.2186729944994 928.1516960401169 372.34177782950275Q924.027984801666 375.43456125834103 919.4191310645735 377.55705968989673Q914.8405987336463 379.70987952761743 909.6556382794175 380.80145014956037Q904.4706778251885 381.8930207715033 898.1335039366867 381.8930207715033L898.1335039366867 381.8930207715033Q891.7053658296894 381.8930207715033 886.0959056891494 380.0737364015984Q880.4561241424443 378.28477343785863 876.3020914978282 374.67652610421396Q872.1783802593771 371.06827877056935 869.7223463600055 365.54978284852456Q867.266312460634 360.0616083326449 867.266312460634 352.5115781975397L867.266312460634 352.5115781975397Q867.266312460634 345.9621544658821 870.8442383881136 339.8978732328659Q874.4524857217582 333.8639134060148 882.4876583555048 329.16409545042717Q890.4925095830862 324.4642774948396 903.500392827906 321.46245828449656Q916.4779546665608 318.4606390741535 935.2469050827459 318.0361393878424L935.2469050827459 318.0361393878424L935.2469050827459 309.3945386307943Q935.2469050827459 296.5079410106348 929.7587305668663 289.9281958728121Q924.2402346448215 283.3181293288245 913.4154926438875 283.3181293288245L913.4154926438875 283.3181293288245Q906.3202836012586 283.3181293288245 901.4688586148455 285.1070922925643Q896.6174336284327 286.9263766624691 893.069829107118 289.13983931252005Q889.5222245858035 291.38362336873604 886.9449050617717 293.20290773864093Q884.3979069439048 294.9918707023807 881.8812302322032 294.9918707023807L881.8812302322032 294.9918707023807Q879.9103388314728 294.9918707023807 878.4549113355489 293.96094289276795Q876.9691624334599 292.9300150831552 876.0898416546726 291.38362336873604L876.0898416546726 291.38362336873604L872.6028799456883 285.1677351048944Q881.7599446075427 276.3138845046907 892.3724367653211 271.94760201691906Q902.9546075169345 267.5813195291474 915.8412051370941 267.5813195291474L915.8412051370941 267.5813195291474Q925.1195554236089 267.5813195291474 932.305728684733 270.64378155182055Q939.5222233520225 273.7062435744938 944.4342911507655 279.1640966842084Q949.3463589495087 284.62194979392297 951.8630356612105 292.38422977218374Q954.3493909667471 300.1161883442794 954.3493909667471 309.3945386307943L954.3493909667471 309.3945386307943ZM903.924892514217 368.2483879972168L903.924892514217 368.2483879972168Q909.0492101561158 368.2483879972168 913.3245284253923 367.187138781439Q917.5695252885035 366.15621097182617 921.3293796529737 364.2459623834261Q925.1195554236089 362.335713795026 928.545874320263 359.60678724016867Q931.9721932169172 356.87786068531136 935.2469050827459 353.39089897632704L935.2469050827459 353.39089897632704L935.2469050827459 330.34663029086533Q921.8448435577801 330.80145138334154 912.4452076466049 332.4994501285861Q903.0455717354298 334.1671274676656 897.163218939404 336.8960540225229Q891.2808661433783 339.6249805773802 888.5822609946861 343.35451353568516Q885.9139772521589 347.05372508782506 885.9139772521589 351.6322574187523L885.9139772521589 351.6322574187523Q885.9139772521589 355.998539906524 887.3390833419177 359.1822875538575Q888.7641894316765 362.335713795026 891.1595805187179 364.3672480080864Q893.5549716057593 366.36846081498174 896.8296834715882 367.3084244060992Q900.1043953374169 368.2483879972168 903.924892514217 368.2483879972168ZM1003.257819111023 380.1343792139286L983.8217977592059 380.1343792139286L983.8217977592059 269.5522109298776L995.404574914267 269.5522109298776Q999.5586075588832 269.5522109298776 1000.650178180826 273.58495794983344L1000.650178180826 273.58495794983344L1002.16624848908 285.59223479120556Q1009.3827431563694 277.6480263759543 1018.2669151627382 272.73595857721114Q1027.1814085752721 267.823890778468 1038.8551499488285 267.823890778468L1038.8551499488285 267.823890778468Q1047.9212503921876 267.823890778468 1054.8345309978258 270.825709988811Q1061.7781330096295 273.82752919915407 1066.417308152887 279.31570371503375Q1071.0564832961445 284.83419963707854 1073.451874383186 292.59647961533926Q1075.8472654702273 300.328438187435 1075.8472654702273 309.72807409861014L1075.8472654702273 309.72807409861014L1075.8472654702273 380.1343792139286L1056.4112441184102 380.1343792139286L1056.4112441184102 309.72807409861014Q1056.4112441184102 297.1750119462665 1050.6804983532097 290.231409934463Q1044.9497525880097 283.3181293288245 1033.1850469959581 283.3181293288245L1033.1850469959581 283.3181293288245Q1024.5434462389098 283.3181293288245 1017.0843803223 287.4721619734406Q1009.5949929995251 291.5958732118916 1003.257819111023 298.6910822545206L1003.257819111023 298.6910822545206L1003.257819111023 380.1343792139286Z " fill="#f4a896" transform="matrix(0.8133124313097488,0,0,0.8133124313097486,0,21.374320851892406)"/></g></svg>